<svg xmlns="http://www.w3.org/2000/svg" viewBox="0 0 512 512">
  <!--
    Android adaptive-icon FOREGROUND layer: white glyph on a transparent background.
    Scaled to 62% and centered so it stays inside Android's "safe zone"
    (launchers crop icons into circles, squircles, etc.).
    Use with icon-background.svg in Android Studio → New → Image Asset.
  -->
  <g transform="translate(256 256) scale(0.62) translate(-256 -276)">
    <ellipse cx="256" cy="442" rx="58" ry="12" fill="#FFFFFF" opacity="0.25"/>
    <path fill="#FFFFFF" fill-rule="evenodd"
          d="M256 430 L160.74 265 A110 110 0 1 1 351.26 265 Z
             M212 210 a44 44 0 1 0 88 0 a44 44 0 1 0 -88 0 Z"/>
    <g fill="none" stroke="#FFFFFF" stroke-linecap="round" stroke-width="22">
      <path d="M378.87 123.96 A150 150 0 0 1 378.87 296.04"/>
      <path d="M133.13 123.96 A150 150 0 0 0 133.13 296.04"/>
      <path d="M421.37 106.67 A195 195 0 0 1 421.37 313.33" opacity="0.6"/>
      <path d="M90.63 106.67 A195 195 0 0 0 90.63 313.33" opacity="0.6"/>
    </g>
  </g>
</svg>
